<svg width="64" height="64" viewBox="0 0 64 64" fill="none" xmlns="http://www.w3.org/2000/svg">
<g id="emoji patas">
<g id="Group">
<path id="Vector" d="M18.0999 22.1C12.4999 23.6 8.99995 29 9.99995 32.8C10.9999 36.6 14.7999 32.3 20.3999 30.8C25.9999 29.3 31.3999 31.1 30.3999 27.4C29.3999 23.7 23.7999 20.6 18.0999 22.1Z" fill="#28C047"/>
<path id="Vector_2" d="M13.8 20.3C15.5 19.7 15.7 16 14.8 13.5C13.9 11 11.8 9.49999 10.1 10.1C8.39995 10.7 7.79995 13.2 8.69995 15.7C9.59995 18.2 12.1 21 13.8 20.3Z" fill="#28C047"/>
<path id="Vector_3" d="M20.7 18.4C22.5 18.2 23.7 14.7 23.4 12.1C23.2 9.5 21.5 7.5 19.7 7.6C17.9 7.8 16.6 10 16.9 12.7C17.1 15.3 18.9 18.6 20.7 18.4Z" fill="#28C047"/>
<path id="Vector_4" d="M28.7 10.7C26.9 10.7 25.4 12.8 25.4 15.5C25.4 18.2 26.9 21.5 28.7 21.5C30.5 21.5 32 18.1 32 15.5C32 12.8 30.5 10.7 28.7 10.7Z" fill="#28C047"/>
<path id="Vector_5" d="M3.29997 17.5C1.69997 18.4 1.49997 21 2.89997 23.3C4.19997 25.6 7.19997 27.8 8.79997 26.9C10.4 26 9.89997 22.3 8.59997 20C7.29997 17.7 4.89997 16.6 3.29997 17.5Z" fill="#28C047"/>
<path id="Vector_6" d="M45.9 44.2C40.3 42.7 34.5 45.7 33.6 49.4C32.7 53.1 38 51.3 43.6 52.8C49.2 54.3 53 58.6 54 54.8C55 51 51.5 45.7 45.9 44.2Z" fill="#28C047"/>
<path id="Vector_7" d="M50.1999 42.5C51.8999 43.1 54.3999 40.4 55.2999 37.9C56.1999 35.4 55.5999 32.9 53.8999 32.3C52.1999 31.7 50.0999 33.2 49.1999 35.7C48.2999 38.2 48.4999 41.9 50.1999 42.5Z" fill="#28C047"/>
<path id="Vector_8" d="M43.3 40.6C45.1 40.8 46.9 37.5 47.1 34.9C47.3 32.3 46.1 30 44.3 29.8C42.5 29.6 40.8 31.7 40.6 34.3C40.3 36.9 41.5 40.4 43.3 40.6Z" fill="#28C047"/>
<path id="Vector_9" d="M35.3 43.7C37.1 43.7 38.6 40.3 38.6 37.7C38.6 35.1 37.1 32.9 35.3 32.9C33.5 32.9 32 35 32 37.7C32 40.3 33.5 43.7 35.3 43.7Z" fill="#28C047"/>
<path id="Vector_10" d="M60.6999 39.6C59.0999 38.7 56.7999 39.8 55.4999 42.1C54.1999 44.4 53.6999 48.1 55.2999 49C56.8999 49.9 59.7999 47.7 61.1999 45.4C62.5999 43.1 62.1999 40.5 60.6999 39.6Z" fill="#28C047"/>
</g>
</g>
</svg>
